<svg version="1.1" id="Layer_1" xmlns="http://www.w3.org/2000/svg" xmlns:xlink="http://www.w3.org/1999/xlink" x="0px" y="0px"
	 width="100%" viewBox="0 0 448 496" enable-background="new 0 0 448 496" xml:space="preserve">
<path fill="#114868" opacity="1.000000" stroke="none" 
	d="
M245.792358,403.192596 
	C231.702713,381.701447 213.049606,365.059174 193.762177,349.105225 
	C174.511902,333.182068 154.901428,317.695099 135.539246,301.906067 
	C128.693756,296.323883 122.308876,290.234833 116.711006,283.342072 
	C104.960510,268.873535 104.488007,253.031586 115.399193,237.885376 
	C124.363937,225.441116 134.551910,213.973801 143.984650,201.904877 
	C161.215836,179.858063 178.278091,157.677658 195.671097,135.759506 
	C205.513214,123.356781 216.049988,111.524254 228.418961,101.510109 
	C232.308365,98.361168 236.524673,95.638763 241.560944,94.632530 
	C250.086716,92.929115 257.858551,98.184250 258.095276,106.769417 
	C258.535980,122.753418 258.412201,138.760620 258.156097,154.752289 
	C258.058228,160.863800 253.233932,165.450867 247.438126,166.128998 
	C241.990280,166.766418 237.974106,164.009186 235.759262,158.111130 
	C231.825211,147.634796 224.060547,145.555695 214.729660,152.119949 
	C206.470718,157.930115 201.212143,165.856537 197.824432,175.084030 
	C183.478058,214.160965 187.972702,251.586868 208.164871,287.487610 
	C219.340973,307.358185 234.765610,324.097107 248.775513,341.868256 
	C261.891052,358.504883 274.694855,375.316254 283.681610,394.680695 
	C289.894226,408.067444 294.405396,421.902771 295.383820,436.735992 
	C295.423309,437.334625 295.619598,437.922943 295.859741,439.079071 
	C299.347870,432.598114 299.013214,426.119019 299.026581,419.739838 
	C299.080688,393.911346 298.905792,368.081421 299.135071,342.254852 
	C299.211456,333.653503 298.971680,324.955017 301.960938,316.578613 
	C303.896027,311.156219 307.569580,306.840210 310.838806,301.554993 
	C306.236145,298.901245 301.520050,297.675079 296.583038,297.329193 
	C290.270721,296.887024 283.944000,296.629761 277.619751,296.390411 
	C275.366028,296.305145 273.205231,296.020813 271.779938,294.132568 
	C262.333282,281.617523 250.400269,271.227478 241.216782,258.509674 
	C232.404922,246.306503 228.630722,232.577667 229.676529,217.537109 
	C230.107681,211.336380 233.765579,206.804642 238.961700,206.137878 
	C243.483871,205.557602 247.373276,209.024048 249.414948,215.113770 
	C250.341599,217.877747 250.186996,220.703262 250.507767,223.500687 
	C253.061569,245.772873 266.360016,260.162323 285.620056,269.237213 
	C304.711792,278.232788 325.367279,282.332672 346.117432,285.652496 
	C354.009705,286.915192 361.970947,287.730011 369.959869,287.713715 
	C381.435089,287.690338 385.624573,280.390015 379.821838,270.523956 
	C377.984039,267.399261 375.422516,264.688812 373.101440,261.863281 
	C371.108002,259.436554 371.599945,257.561646 374.268280,256.263489 
	C377.110352,254.880768 380.103088,253.805695 382.933868,252.402344 
	C385.504547,251.127914 388.347382,249.555603 387.422394,246.098282 
	C386.607788,243.053345 383.578674,243.423508 381.105713,243.383804 
	C378.440643,243.340988 375.773102,243.457565 373.107727,243.422241 
	C371.648438,243.402908 369.905273,243.709717 369.115814,242.062653 
	C368.295013,240.350189 369.224335,238.801453 370.208252,237.434052 
	C372.208099,234.654724 374.910461,232.696594 378.045959,231.429260 
	C380.968414,230.248047 383.990417,229.313599 386.966003,228.263290 
	C391.670105,226.602859 393.044617,223.576538 391.274872,218.874878 
	C390.243958,216.136078 388.114899,214.211853 386.316010,212.037994 
	C382.284912,207.166626 383.154572,202.543579 389.093872,200.164429 
	C393.695099,198.321259 398.671722,197.431870 403.445068,195.997223 
	C408.412354,194.504288 408.556671,193.941330 405.578522,189.583954 
	C393.742676,172.266693 381.068756,155.470154 372.155853,136.325302 
	C367.583160,126.503159 364.098938,116.245941 360.501678,106.045593 
	C359.287476,102.602516 357.503754,101.094246 353.636871,101.059700 
	C333.950134,100.883865 314.325043,101.231651 295.111267,106.182121 
	C289.045776,107.744919 285.180878,105.037704 282.117493,100.324432 
	C278.493073,94.748009 275.319336,88.885574 270.654968,84.009293 
	C257.840485,70.612625 241.631653,65.990631 223.735077,65.234169 
	C199.784866,64.221832 176.754471,69.243607 153.879730,75.420868 
	C131.305695,81.516922 109.719566,90.218559 88.652634,100.282013 
	C85.854317,101.618736 82.964531,102.763977 79.400467,104.308449 
	C80.139297,99.517128 82.700272,96.610085 84.812386,93.638527 
	C109.890251,58.356342 141.488647,31.567871 183.389786,18.226398 
	C214.714752,8.252412 246.342667,6.933896 278.441742,14.082949 
	C308.414459,20.758427 334.177277,34.721245 355.003021,57.401314 
	C366.751892,70.196304 375.974579,84.749367 381.113037,101.321152 
	C388.513275,125.187241 400.558990,146.497894 414.566345,166.902405 
	C418.996124,173.355301 423.427460,179.811798 427.662079,186.392776 
	C432.787506,194.358337 432.252960,198.805588 425.568665,205.352554 
	C422.240845,208.612000 418.981293,212.015060 414.783844,214.196625 
	C411.603485,215.849564 410.664246,218.406616 411.435364,221.683151 
	C413.015503,228.397415 412.475037,234.581604 407.418640,239.823776 
	C405.997986,241.296631 406.080963,243.262909 406.423645,245.044647 
	C407.557434,250.939255 405.599884,255.906723 401.961182,260.322723 
	C399.953094,262.759888 399.597931,265.158478 400.582916,268.156921 
	C408.130981,291.133667 392.776001,307.976105 370.726990,307.998199 
	C360.896088,308.008026 351.058655,307.806549 341.235962,308.097717 
	C329.147125,308.456116 321.333710,316.386658 321.225128,328.459442 
	C320.998779,353.620422 321.304230,378.789551 320.794525,403.943207 
	C320.558990,415.564667 321.322113,427.260651 319.457489,438.827545 
	C315.692078,462.185608 296.270844,481.770416 272.554840,487.228851 
	C268.844421,488.082855 265.126709,489.005096 260.303162,487.698395 
	C270.502075,457.145172 262.605530,429.524658 245.792358,403.192596 
z"/>
<path fill="#114868" opacity="1.000000" stroke="none" 
	d="
M30.299137,222.394623 
	C40.506054,208.315094 54.120014,198.679077 68.280319,189.849945 
	C96.177208,172.455902 125.339279,157.506409 156.143051,145.885223 
	C159.245392,144.714828 162.412384,143.714188 165.563675,142.678207 
	C165.813766,142.595993 166.176239,142.855606 166.504166,142.962112 
	C167.484100,144.341354 166.226791,145.078094 165.585098,145.916351 
	C146.453293,170.908295 126.578178,195.301620 106.530785,219.562149 
	C97.176315,230.882523 89.666908,243.260971 89.361671,258.577576 
	C89.031647,275.138550 96.621529,288.370728 107.769905,299.824097 
	C124.669579,317.186096 144.130630,331.568420 163.011444,346.599335 
	C183.351395,362.791870 203.813919,378.815094 220.574219,398.919464 
	C232.677200,413.437317 242.478531,429.311462 245.564133,448.233276 
	C247.554199,460.437103 247.609039,472.850922 241.577682,484.367462 
	C239.296127,488.723907 228.208466,491.339661 224.346619,488.382385 
	C221.753387,486.396545 222.438019,483.451080 222.916916,480.963348 
	C224.062347,475.013306 224.134262,469.033264 223.930893,463.051239 
	C223.211044,441.877777 213.169098,425.000671 199.214783,409.952209 
	C185.571121,395.238831 168.917328,384.556671 151.833618,374.440033 
	C129.028519,360.935394 104.643616,350.436249 81.548775,337.480774 
	C62.654675,326.881744 44.922691,314.892120 32.777027,296.339539 
	C20.455322,277.518005 16.023811,257.451141 23.534128,235.557251 
	C25.120350,230.933151 27.489630,226.767517 30.299137,222.394623 
z"/>
<path fill="#114868" opacity="1.000000" stroke="none" 
	d="
M207.140060,96.154709 
	C205.638947,97.504280 204.213547,98.483421 203.226456,99.792946 
	C193.122559,113.197151 178.793045,119.286774 163.345291,124.316841 
	C133.166214,134.143677 104.733315,148.020782 77.202156,163.765747 
	C64.612587,170.965668 52.448559,178.812759 40.653214,187.242203 
	C39.731335,187.901047 38.892899,188.812775 37.551819,188.587051 
	C36.169277,186.729904 37.376972,184.996597 37.878719,183.377167 
	C42.983418,166.901428 50.197704,151.395996 59.411049,136.806290 
	C60.916336,134.422623 63.082909,132.968826 65.357574,131.605499 
	C83.710037,120.606018 103.293785,112.195648 123.123947,104.329018 
	C149.707214,93.783424 177.245422,86.883987 205.553162,82.960342 
	C209.913391,82.355980 218.326691,82.574905 221.314865,83.772659 
	C216.530548,87.961098 211.974884,91.949364 207.140060,96.154709 
z"/>
<path fill="#114868" opacity="1.000000" stroke="none" 
	d="
M345.630859,118.743141 
	C355.282990,120.042122 361.004303,125.131126 363.753632,134.068710 
	C365.011200,138.156723 367.345032,141.907974 369.119446,145.844101 
	C371.275452,150.626770 369.936401,153.788086 364.920471,153.871933 
	C353.049377,154.070404 340.812988,155.675598 330.169189,148.215942 
	C324.158752,144.003555 317.506348,142.783981 310.298950,143.141922 
	C304.539642,143.427933 298.754852,143.199677 292.928467,143.199677 
	C294.324829,133.241165 326.214294,118.562981 345.630859,118.743141 
z"/>
</svg>